<?xml version="1.0" standalone="no"?>
<svg xmlns="http://www.w3.org/2000/svg" version="1.1" width="330" height="330">
	<!-- Created with https://api.qrserver.com (QR Code API, see goQR.me/api for information) -->
	<title>QR Code</title>
	<desc>https://nirvanalan.github.io/projects/eccv26-physicalAI-workshop/</desc>
	<rect style="fill:rgb(255, 255, 255);fill-opacity:1" x="0" y="0" width="330" height="330" />
	<g id="elements">
		<path style="fill:rgb(0, 0, 0)" d="M 0,0 l 10,0 0,10 -10,0 z M 10,0 l 10,0 0,10 -10,0 z M 20,0 l 10,0 0,10 -10,0 z M 30,0 l 10,0 0,10 -10,0 z M 40,0 l 10,0 0,10 -10,0 z M 50,0 l 10,0 0,10 -10,0 z M 60,0 l 10,0 0,10 -10,0 z M 100,0 l 10,0 0,10 -10,0 z M 120,0 l 10,0 0,10 -10,0 z M 130,0 l 10,0 0,10 -10,0 z M 160,0 l 10,0 0,10 -10,0 z M 190,0 l 10,0 0,10 -10,0 z M 230,0 l 10,0 0,10 -10,0 z M 260,0 l 10,0 0,10 -10,0 z M 270,0 l 10,0 0,10 -10,0 z M 280,0 l 10,0 0,10 -10,0 z M 290,0 l 10,0 0,10 -10,0 z M 300,0 l 10,0 0,10 -10,0 z M 310,0 l 10,0 0,10 -10,0 z M 320,0 l 10,0 0,10 -10,0 z M 0,10 l 10,0 0,10 -10,0 z M 60,10 l 10,0 0,10 -10,0 z M 80,10 l 10,0 0,10 -10,0 z M 100,10 l 10,0 0,10 -10,0 z M 130,10 l 10,0 0,10 -10,0 z M 150,10 l 10,0 0,10 -10,0 z M 170,10 l 10,0 0,10 -10,0 z M 220,10 l 10,0 0,10 -10,0 z M 260,10 l 10,0 0,10 -10,0 z M 320,10 l 10,0 0,10 -10,0 z M 0,20 l 10,0 0,10 -10,0 z M 20,20 l 10,0 0,10 -10,0 z M 30,20 l 10,0 0,10 -10,0 z M 40,20 l 10,0 0,10 -10,0 z M 60,20 l 10,0 0,10 -10,0 z M 120,20 l 10,0 0,10 -10,0 z M 140,20 l 10,0 0,10 -10,0 z M 180,20 l 10,0 0,10 -10,0 z M 190,20 l 10,0 0,10 -10,0 z M 210,20 l 10,0 0,10 -10,0 z M 220,20 l 10,0 0,10 -10,0 z M 240,20 l 10,0 0,10 -10,0 z M 260,20 l 10,0 0,10 -10,0 z M 280,20 l 10,0 0,10 -10,0 z M 290,20 l 10,0 0,10 -10,0 z M 300,20 l 10,0 0,10 -10,0 z M 320,20 l 10,0 0,10 -10,0 z M 0,30 l 10,0 0,10 -10,0 z M 20,30 l 10,0 0,10 -10,0 z M 30,30 l 10,0 0,10 -10,0 z M 40,30 l 10,0 0,10 -10,0 z M 60,30 l 10,0 0,10 -10,0 z M 80,30 l 10,0 0,10 -10,0 z M 90,30 l 10,0 0,10 -10,0 z M 100,30 l 10,0 0,10 -10,0 z M 120,30 l 10,0 0,10 -10,0 z M 130,30 l 10,0 0,10 -10,0 z M 140,30 l 10,0 0,10 -10,0 z M 150,30 l 10,0 0,10 -10,0 z M 160,30 l 10,0 0,10 -10,0 z M 170,30 l 10,0 0,10 -10,0 z M 180,30 l 10,0 0,10 -10,0 z M 200,30 l 10,0 0,10 -10,0 z M 230,30 l 10,0 0,10 -10,0 z M 240,30 l 10,0 0,10 -10,0 z M 260,30 l 10,0 0,10 -10,0 z M 280,30 l 10,0 0,10 -10,0 z M 290,30 l 10,0 0,10 -10,0 z M 300,30 l 10,0 0,10 -10,0 z M 320,30 l 10,0 0,10 -10,0 z M 0,40 l 10,0 0,10 -10,0 z M 20,40 l 10,0 0,10 -10,0 z M 30,40 l 10,0 0,10 -10,0 z M 40,40 l 10,0 0,10 -10,0 z M 60,40 l 10,0 0,10 -10,0 z M 90,40 l 10,0 0,10 -10,0 z M 140,40 l 10,0 0,10 -10,0 z M 160,40 l 10,0 0,10 -10,0 z M 170,40 l 10,0 0,10 -10,0 z M 180,40 l 10,0 0,10 -10,0 z M 190,40 l 10,0 0,10 -10,0 z M 230,40 l 10,0 0,10 -10,0 z M 260,40 l 10,0 0,10 -10,0 z M 280,40 l 10,0 0,10 -10,0 z M 290,40 l 10,0 0,10 -10,0 z M 300,40 l 10,0 0,10 -10,0 z M 320,40 l 10,0 0,10 -10,0 z M 0,50 l 10,0 0,10 -10,0 z M 60,50 l 10,0 0,10 -10,0 z M 80,50 l 10,0 0,10 -10,0 z M 90,50 l 10,0 0,10 -10,0 z M 110,50 l 10,0 0,10 -10,0 z M 120,50 l 10,0 0,10 -10,0 z M 130,50 l 10,0 0,10 -10,0 z M 150,50 l 10,0 0,10 -10,0 z M 160,50 l 10,0 0,10 -10,0 z M 220,50 l 10,0 0,10 -10,0 z M 240,50 l 10,0 0,10 -10,0 z M 260,50 l 10,0 0,10 -10,0 z M 320,50 l 10,0 0,10 -10,0 z M 0,60 l 10,0 0,10 -10,0 z M 10,60 l 10,0 0,10 -10,0 z M 20,60 l 10,0 0,10 -10,0 z M 30,60 l 10,0 0,10 -10,0 z M 40,60 l 10,0 0,10 -10,0 z M 50,60 l 10,0 0,10 -10,0 z M 60,60 l 10,0 0,10 -10,0 z M 80,60 l 10,0 0,10 -10,0 z M 100,60 l 10,0 0,10 -10,0 z M 120,60 l 10,0 0,10 -10,0 z M 140,60 l 10,0 0,10 -10,0 z M 160,60 l 10,0 0,10 -10,0 z M 180,60 l 10,0 0,10 -10,0 z M 200,60 l 10,0 0,10 -10,0 z M 220,60 l 10,0 0,10 -10,0 z M 240,60 l 10,0 0,10 -10,0 z M 260,60 l 10,0 0,10 -10,0 z M 270,60 l 10,0 0,10 -10,0 z M 280,60 l 10,0 0,10 -10,0 z M 290,60 l 10,0 0,10 -10,0 z M 300,60 l 10,0 0,10 -10,0 z M 310,60 l 10,0 0,10 -10,0 z M 320,60 l 10,0 0,10 -10,0 z M 90,70 l 10,0 0,10 -10,0 z M 100,70 l 10,0 0,10 -10,0 z M 110,70 l 10,0 0,10 -10,0 z M 140,70 l 10,0 0,10 -10,0 z M 160,70 l 10,0 0,10 -10,0 z M 190,70 l 10,0 0,10 -10,0 z M 200,70 l 10,0 0,10 -10,0 z M 210,70 l 10,0 0,10 -10,0 z M 220,70 l 10,0 0,10 -10,0 z M 230,70 l 10,0 0,10 -10,0 z M 0,80 l 10,0 0,10 -10,0 z M 10,80 l 10,0 0,10 -10,0 z M 20,80 l 10,0 0,10 -10,0 z M 30,80 l 10,0 0,10 -10,0 z M 40,80 l 10,0 0,10 -10,0 z M 60,80 l 10,0 0,10 -10,0 z M 70,80 l 10,0 0,10 -10,0 z M 80,80 l 10,0 0,10 -10,0 z M 90,80 l 10,0 0,10 -10,0 z M 110,80 l 10,0 0,10 -10,0 z M 130,80 l 10,0 0,10 -10,0 z M 140,80 l 10,0 0,10 -10,0 z M 170,80 l 10,0 0,10 -10,0 z M 200,80 l 10,0 0,10 -10,0 z M 220,80 l 10,0 0,10 -10,0 z M 230,80 l 10,0 0,10 -10,0 z M 240,80 l 10,0 0,10 -10,0 z M 250,80 l 10,0 0,10 -10,0 z M 270,80 l 10,0 0,10 -10,0 z M 290,80 l 10,0 0,10 -10,0 z M 310,80 l 10,0 0,10 -10,0 z M 0,90 l 10,0 0,10 -10,0 z M 10,90 l 10,0 0,10 -10,0 z M 30,90 l 10,0 0,10 -10,0 z M 40,90 l 10,0 0,10 -10,0 z M 50,90 l 10,0 0,10 -10,0 z M 70,90 l 10,0 0,10 -10,0 z M 100,90 l 10,0 0,10 -10,0 z M 120,90 l 10,0 0,10 -10,0 z M 130,90 l 10,0 0,10 -10,0 z M 160,90 l 10,0 0,10 -10,0 z M 190,90 l 10,0 0,10 -10,0 z M 200,90 l 10,0 0,10 -10,0 z M 210,90 l 10,0 0,10 -10,0 z M 220,90 l 10,0 0,10 -10,0 z M 230,90 l 10,0 0,10 -10,0 z M 240,90 l 10,0 0,10 -10,0 z M 260,90 l 10,0 0,10 -10,0 z M 300,90 l 10,0 0,10 -10,0 z M 310,90 l 10,0 0,10 -10,0 z M 320,90 l 10,0 0,10 -10,0 z M 0,100 l 10,0 0,10 -10,0 z M 20,100 l 10,0 0,10 -10,0 z M 40,100 l 10,0 0,10 -10,0 z M 60,100 l 10,0 0,10 -10,0 z M 80,100 l 10,0 0,10 -10,0 z M 100,100 l 10,0 0,10 -10,0 z M 150,100 l 10,0 0,10 -10,0 z M 160,100 l 10,0 0,10 -10,0 z M 180,100 l 10,0 0,10 -10,0 z M 200,100 l 10,0 0,10 -10,0 z M 210,100 l 10,0 0,10 -10,0 z M 240,100 l 10,0 0,10 -10,0 z M 250,100 l 10,0 0,10 -10,0 z M 260,100 l 10,0 0,10 -10,0 z M 290,100 l 10,0 0,10 -10,0 z M 310,100 l 10,0 0,10 -10,0 z M 0,110 l 10,0 0,10 -10,0 z M 10,110 l 10,0 0,10 -10,0 z M 40,110 l 10,0 0,10 -10,0 z M 50,110 l 10,0 0,10 -10,0 z M 70,110 l 10,0 0,10 -10,0 z M 120,110 l 10,0 0,10 -10,0 z M 160,110 l 10,0 0,10 -10,0 z M 180,110 l 10,0 0,10 -10,0 z M 190,110 l 10,0 0,10 -10,0 z M 210,110 l 10,0 0,10 -10,0 z M 230,110 l 10,0 0,10 -10,0 z M 240,110 l 10,0 0,10 -10,0 z M 270,110 l 10,0 0,10 -10,0 z M 300,110 l 10,0 0,10 -10,0 z M 20,120 l 10,0 0,10 -10,0 z M 40,120 l 10,0 0,10 -10,0 z M 50,120 l 10,0 0,10 -10,0 z M 60,120 l 10,0 0,10 -10,0 z M 80,120 l 10,0 0,10 -10,0 z M 90,120 l 10,0 0,10 -10,0 z M 100,120 l 10,0 0,10 -10,0 z M 120,120 l 10,0 0,10 -10,0 z M 130,120 l 10,0 0,10 -10,0 z M 140,120 l 10,0 0,10 -10,0 z M 150,120 l 10,0 0,10 -10,0 z M 160,120 l 10,0 0,10 -10,0 z M 170,120 l 10,0 0,10 -10,0 z M 220,120 l 10,0 0,10 -10,0 z M 240,120 l 10,0 0,10 -10,0 z M 250,120 l 10,0 0,10 -10,0 z M 270,120 l 10,0 0,10 -10,0 z M 280,120 l 10,0 0,10 -10,0 z M 290,120 l 10,0 0,10 -10,0 z M 0,130 l 10,0 0,10 -10,0 z M 10,130 l 10,0 0,10 -10,0 z M 20,130 l 10,0 0,10 -10,0 z M 40,130 l 10,0 0,10 -10,0 z M 80,130 l 10,0 0,10 -10,0 z M 130,130 l 10,0 0,10 -10,0 z M 160,130 l 10,0 0,10 -10,0 z M 170,130 l 10,0 0,10 -10,0 z M 180,130 l 10,0 0,10 -10,0 z M 190,130 l 10,0 0,10 -10,0 z M 200,130 l 10,0 0,10 -10,0 z M 210,130 l 10,0 0,10 -10,0 z M 220,130 l 10,0 0,10 -10,0 z M 230,130 l 10,0 0,10 -10,0 z M 260,130 l 10,0 0,10 -10,0 z M 310,130 l 10,0 0,10 -10,0 z M 320,130 l 10,0 0,10 -10,0 z M 10,140 l 10,0 0,10 -10,0 z M 20,140 l 10,0 0,10 -10,0 z M 40,140 l 10,0 0,10 -10,0 z M 60,140 l 10,0 0,10 -10,0 z M 70,140 l 10,0 0,10 -10,0 z M 110,140 l 10,0 0,10 -10,0 z M 120,140 l 10,0 0,10 -10,0 z M 130,140 l 10,0 0,10 -10,0 z M 140,140 l 10,0 0,10 -10,0 z M 150,140 l 10,0 0,10 -10,0 z M 160,140 l 10,0 0,10 -10,0 z M 180,140 l 10,0 0,10 -10,0 z M 200,140 l 10,0 0,10 -10,0 z M 270,140 l 10,0 0,10 -10,0 z M 280,140 l 10,0 0,10 -10,0 z M 310,140 l 10,0 0,10 -10,0 z M 20,150 l 10,0 0,10 -10,0 z M 30,150 l 10,0 0,10 -10,0 z M 40,150 l 10,0 0,10 -10,0 z M 80,150 l 10,0 0,10 -10,0 z M 90,150 l 10,0 0,10 -10,0 z M 100,150 l 10,0 0,10 -10,0 z M 110,150 l 10,0 0,10 -10,0 z M 140,150 l 10,0 0,10 -10,0 z M 150,150 l 10,0 0,10 -10,0 z M 160,150 l 10,0 0,10 -10,0 z M 180,150 l 10,0 0,10 -10,0 z M 190,150 l 10,0 0,10 -10,0 z M 210,150 l 10,0 0,10 -10,0 z M 250,150 l 10,0 0,10 -10,0 z M 280,150 l 10,0 0,10 -10,0 z M 300,150 l 10,0 0,10 -10,0 z M 10,160 l 10,0 0,10 -10,0 z M 60,160 l 10,0 0,10 -10,0 z M 70,160 l 10,0 0,10 -10,0 z M 100,160 l 10,0 0,10 -10,0 z M 110,160 l 10,0 0,10 -10,0 z M 130,160 l 10,0 0,10 -10,0 z M 140,160 l 10,0 0,10 -10,0 z M 170,160 l 10,0 0,10 -10,0 z M 220,160 l 10,0 0,10 -10,0 z M 250,160 l 10,0 0,10 -10,0 z M 270,160 l 10,0 0,10 -10,0 z M 280,160 l 10,0 0,10 -10,0 z M 310,160 l 10,0 0,10 -10,0 z M 40,170 l 10,0 0,10 -10,0 z M 70,170 l 10,0 0,10 -10,0 z M 80,170 l 10,0 0,10 -10,0 z M 90,170 l 10,0 0,10 -10,0 z M 100,170 l 10,0 0,10 -10,0 z M 120,170 l 10,0 0,10 -10,0 z M 140,170 l 10,0 0,10 -10,0 z M 170,170 l 10,0 0,10 -10,0 z M 190,170 l 10,0 0,10 -10,0 z M 200,170 l 10,0 0,10 -10,0 z M 230,170 l 10,0 0,10 -10,0 z M 260,170 l 10,0 0,10 -10,0 z M 290,170 l 10,0 0,10 -10,0 z M 310,170 l 10,0 0,10 -10,0 z M 320,170 l 10,0 0,10 -10,0 z M 10,180 l 10,0 0,10 -10,0 z M 30,180 l 10,0 0,10 -10,0 z M 40,180 l 10,0 0,10 -10,0 z M 60,180 l 10,0 0,10 -10,0 z M 100,180 l 10,0 0,10 -10,0 z M 150,180 l 10,0 0,10 -10,0 z M 160,180 l 10,0 0,10 -10,0 z M 180,180 l 10,0 0,10 -10,0 z M 200,180 l 10,0 0,10 -10,0 z M 220,180 l 10,0 0,10 -10,0 z M 240,180 l 10,0 0,10 -10,0 z M 250,180 l 10,0 0,10 -10,0 z M 260,180 l 10,0 0,10 -10,0 z M 290,180 l 10,0 0,10 -10,0 z M 310,180 l 10,0 0,10 -10,0 z M 10,190 l 10,0 0,10 -10,0 z M 20,190 l 10,0 0,10 -10,0 z M 30,190 l 10,0 0,10 -10,0 z M 50,190 l 10,0 0,10 -10,0 z M 80,190 l 10,0 0,10 -10,0 z M 90,190 l 10,0 0,10 -10,0 z M 120,190 l 10,0 0,10 -10,0 z M 150,190 l 10,0 0,10 -10,0 z M 200,190 l 10,0 0,10 -10,0 z M 210,190 l 10,0 0,10 -10,0 z M 220,190 l 10,0 0,10 -10,0 z M 240,190 l 10,0 0,10 -10,0 z M 260,190 l 10,0 0,10 -10,0 z M 270,190 l 10,0 0,10 -10,0 z M 300,190 l 10,0 0,10 -10,0 z M 10,200 l 10,0 0,10 -10,0 z M 20,200 l 10,0 0,10 -10,0 z M 30,200 l 10,0 0,10 -10,0 z M 60,200 l 10,0 0,10 -10,0 z M 100,200 l 10,0 0,10 -10,0 z M 120,200 l 10,0 0,10 -10,0 z M 130,200 l 10,0 0,10 -10,0 z M 170,200 l 10,0 0,10 -10,0 z M 220,200 l 10,0 0,10 -10,0 z M 230,200 l 10,0 0,10 -10,0 z M 240,200 l 10,0 0,10 -10,0 z M 270,200 l 10,0 0,10 -10,0 z M 280,200 l 10,0 0,10 -10,0 z M 310,200 l 10,0 0,10 -10,0 z M 0,210 l 10,0 0,10 -10,0 z M 20,210 l 10,0 0,10 -10,0 z M 40,210 l 10,0 0,10 -10,0 z M 70,210 l 10,0 0,10 -10,0 z M 80,210 l 10,0 0,10 -10,0 z M 90,210 l 10,0 0,10 -10,0 z M 130,210 l 10,0 0,10 -10,0 z M 150,210 l 10,0 0,10 -10,0 z M 160,210 l 10,0 0,10 -10,0 z M 190,210 l 10,0 0,10 -10,0 z M 200,210 l 10,0 0,10 -10,0 z M 230,210 l 10,0 0,10 -10,0 z M 260,210 l 10,0 0,10 -10,0 z M 290,210 l 10,0 0,10 -10,0 z M 310,210 l 10,0 0,10 -10,0 z M 320,210 l 10,0 0,10 -10,0 z M 0,220 l 10,0 0,10 -10,0 z M 20,220 l 10,0 0,10 -10,0 z M 40,220 l 10,0 0,10 -10,0 z M 50,220 l 10,0 0,10 -10,0 z M 60,220 l 10,0 0,10 -10,0 z M 90,220 l 10,0 0,10 -10,0 z M 100,220 l 10,0 0,10 -10,0 z M 110,220 l 10,0 0,10 -10,0 z M 120,220 l 10,0 0,10 -10,0 z M 130,220 l 10,0 0,10 -10,0 z M 140,220 l 10,0 0,10 -10,0 z M 150,220 l 10,0 0,10 -10,0 z M 160,220 l 10,0 0,10 -10,0 z M 170,220 l 10,0 0,10 -10,0 z M 180,220 l 10,0 0,10 -10,0 z M 200,220 l 10,0 0,10 -10,0 z M 240,220 l 10,0 0,10 -10,0 z M 250,220 l 10,0 0,10 -10,0 z M 260,220 l 10,0 0,10 -10,0 z M 270,220 l 10,0 0,10 -10,0 z M 280,220 l 10,0 0,10 -10,0 z M 290,220 l 10,0 0,10 -10,0 z M 310,220 l 10,0 0,10 -10,0 z M 0,230 l 10,0 0,10 -10,0 z M 20,230 l 10,0 0,10 -10,0 z M 30,230 l 10,0 0,10 -10,0 z M 50,230 l 10,0 0,10 -10,0 z M 70,230 l 10,0 0,10 -10,0 z M 80,230 l 10,0 0,10 -10,0 z M 110,230 l 10,0 0,10 -10,0 z M 140,230 l 10,0 0,10 -10,0 z M 150,230 l 10,0 0,10 -10,0 z M 190,230 l 10,0 0,10 -10,0 z M 200,230 l 10,0 0,10 -10,0 z M 210,230 l 10,0 0,10 -10,0 z M 260,230 l 10,0 0,10 -10,0 z M 290,230 l 10,0 0,10 -10,0 z M 300,230 l 10,0 0,10 -10,0 z M 0,240 l 10,0 0,10 -10,0 z M 20,240 l 10,0 0,10 -10,0 z M 30,240 l 10,0 0,10 -10,0 z M 40,240 l 10,0 0,10 -10,0 z M 50,240 l 10,0 0,10 -10,0 z M 60,240 l 10,0 0,10 -10,0 z M 70,240 l 10,0 0,10 -10,0 z M 80,240 l 10,0 0,10 -10,0 z M 110,240 l 10,0 0,10 -10,0 z M 150,240 l 10,0 0,10 -10,0 z M 170,240 l 10,0 0,10 -10,0 z M 190,240 l 10,0 0,10 -10,0 z M 220,240 l 10,0 0,10 -10,0 z M 240,240 l 10,0 0,10 -10,0 z M 250,240 l 10,0 0,10 -10,0 z M 260,240 l 10,0 0,10 -10,0 z M 270,240 l 10,0 0,10 -10,0 z M 280,240 l 10,0 0,10 -10,0 z M 320,240 l 10,0 0,10 -10,0 z M 80,250 l 10,0 0,10 -10,0 z M 90,250 l 10,0 0,10 -10,0 z M 120,250 l 10,0 0,10 -10,0 z M 130,250 l 10,0 0,10 -10,0 z M 150,250 l 10,0 0,10 -10,0 z M 160,250 l 10,0 0,10 -10,0 z M 170,250 l 10,0 0,10 -10,0 z M 180,250 l 10,0 0,10 -10,0 z M 190,250 l 10,0 0,10 -10,0 z M 210,250 l 10,0 0,10 -10,0 z M 230,250 l 10,0 0,10 -10,0 z M 240,250 l 10,0 0,10 -10,0 z M 280,250 l 10,0 0,10 -10,0 z M 290,250 l 10,0 0,10 -10,0 z M 320,250 l 10,0 0,10 -10,0 z M 0,260 l 10,0 0,10 -10,0 z M 10,260 l 10,0 0,10 -10,0 z M 20,260 l 10,0 0,10 -10,0 z M 30,260 l 10,0 0,10 -10,0 z M 40,260 l 10,0 0,10 -10,0 z M 50,260 l 10,0 0,10 -10,0 z M 60,260 l 10,0 0,10 -10,0 z M 80,260 l 10,0 0,10 -10,0 z M 100,260 l 10,0 0,10 -10,0 z M 130,260 l 10,0 0,10 -10,0 z M 140,260 l 10,0 0,10 -10,0 z M 150,260 l 10,0 0,10 -10,0 z M 180,260 l 10,0 0,10 -10,0 z M 200,260 l 10,0 0,10 -10,0 z M 210,260 l 10,0 0,10 -10,0 z M 220,260 l 10,0 0,10 -10,0 z M 230,260 l 10,0 0,10 -10,0 z M 240,260 l 10,0 0,10 -10,0 z M 260,260 l 10,0 0,10 -10,0 z M 280,260 l 10,0 0,10 -10,0 z M 310,260 l 10,0 0,10 -10,0 z M 0,270 l 10,0 0,10 -10,0 z M 60,270 l 10,0 0,10 -10,0 z M 90,270 l 10,0 0,10 -10,0 z M 100,270 l 10,0 0,10 -10,0 z M 120,270 l 10,0 0,10 -10,0 z M 130,270 l 10,0 0,10 -10,0 z M 150,270 l 10,0 0,10 -10,0 z M 160,270 l 10,0 0,10 -10,0 z M 190,270 l 10,0 0,10 -10,0 z M 210,270 l 10,0 0,10 -10,0 z M 220,270 l 10,0 0,10 -10,0 z M 230,270 l 10,0 0,10 -10,0 z M 240,270 l 10,0 0,10 -10,0 z M 280,270 l 10,0 0,10 -10,0 z M 290,270 l 10,0 0,10 -10,0 z M 300,270 l 10,0 0,10 -10,0 z M 310,270 l 10,0 0,10 -10,0 z M 0,280 l 10,0 0,10 -10,0 z M 20,280 l 10,0 0,10 -10,0 z M 30,280 l 10,0 0,10 -10,0 z M 40,280 l 10,0 0,10 -10,0 z M 60,280 l 10,0 0,10 -10,0 z M 80,280 l 10,0 0,10 -10,0 z M 120,280 l 10,0 0,10 -10,0 z M 140,280 l 10,0 0,10 -10,0 z M 170,280 l 10,0 0,10 -10,0 z M 200,280 l 10,0 0,10 -10,0 z M 220,280 l 10,0 0,10 -10,0 z M 240,280 l 10,0 0,10 -10,0 z M 250,280 l 10,0 0,10 -10,0 z M 260,280 l 10,0 0,10 -10,0 z M 270,280 l 10,0 0,10 -10,0 z M 280,280 l 10,0 0,10 -10,0 z M 0,290 l 10,0 0,10 -10,0 z M 20,290 l 10,0 0,10 -10,0 z M 30,290 l 10,0 0,10 -10,0 z M 40,290 l 10,0 0,10 -10,0 z M 60,290 l 10,0 0,10 -10,0 z M 80,290 l 10,0 0,10 -10,0 z M 100,290 l 10,0 0,10 -10,0 z M 160,290 l 10,0 0,10 -10,0 z M 180,290 l 10,0 0,10 -10,0 z M 190,290 l 10,0 0,10 -10,0 z M 200,290 l 10,0 0,10 -10,0 z M 210,290 l 10,0 0,10 -10,0 z M 230,290 l 10,0 0,10 -10,0 z M 240,290 l 10,0 0,10 -10,0 z M 250,290 l 10,0 0,10 -10,0 z M 280,290 l 10,0 0,10 -10,0 z M 0,300 l 10,0 0,10 -10,0 z M 20,300 l 10,0 0,10 -10,0 z M 30,300 l 10,0 0,10 -10,0 z M 40,300 l 10,0 0,10 -10,0 z M 60,300 l 10,0 0,10 -10,0 z M 80,300 l 10,0 0,10 -10,0 z M 90,300 l 10,0 0,10 -10,0 z M 110,300 l 10,0 0,10 -10,0 z M 120,300 l 10,0 0,10 -10,0 z M 150,300 l 10,0 0,10 -10,0 z M 160,300 l 10,0 0,10 -10,0 z M 170,300 l 10,0 0,10 -10,0 z M 180,300 l 10,0 0,10 -10,0 z M 260,300 l 10,0 0,10 -10,0 z M 290,300 l 10,0 0,10 -10,0 z M 300,300 l 10,0 0,10 -10,0 z M 310,300 l 10,0 0,10 -10,0 z M 0,310 l 10,0 0,10 -10,0 z M 60,310 l 10,0 0,10 -10,0 z M 80,310 l 10,0 0,10 -10,0 z M 90,310 l 10,0 0,10 -10,0 z M 110,310 l 10,0 0,10 -10,0 z M 140,310 l 10,0 0,10 -10,0 z M 150,310 l 10,0 0,10 -10,0 z M 200,310 l 10,0 0,10 -10,0 z M 210,310 l 10,0 0,10 -10,0 z M 220,310 l 10,0 0,10 -10,0 z M 250,310 l 10,0 0,10 -10,0 z M 270,310 l 10,0 0,10 -10,0 z M 280,310 l 10,0 0,10 -10,0 z M 290,310 l 10,0 0,10 -10,0 z M 300,310 l 10,0 0,10 -10,0 z M 0,320 l 10,0 0,10 -10,0 z M 10,320 l 10,0 0,10 -10,0 z M 20,320 l 10,0 0,10 -10,0 z M 30,320 l 10,0 0,10 -10,0 z M 40,320 l 10,0 0,10 -10,0 z M 50,320 l 10,0 0,10 -10,0 z M 60,320 l 10,0 0,10 -10,0 z M 80,320 l 10,0 0,10 -10,0 z M 100,320 l 10,0 0,10 -10,0 z M 110,320 l 10,0 0,10 -10,0 z M 150,320 l 10,0 0,10 -10,0 z M 170,320 l 10,0 0,10 -10,0 z M 200,320 l 10,0 0,10 -10,0 z M 220,320 l 10,0 0,10 -10,0 z M 230,320 l 10,0 0,10 -10,0 z M 240,320 l 10,0 0,10 -10,0 z M 250,320 l 10,0 0,10 -10,0 z M 260,320 l 10,0 0,10 -10,0 z M 270,320 l 10,0 0,10 -10,0 z M 290,320 l 10,0 0,10 -10,0 z M 310,320 l 10,0 0,10 -10,0 z " />
	</g>
</svg>
